# Blender v2.74 (sub 0) OBJ File: ''
# www.blender.org
mtllib shelf-metal.mtl
o eb_metal_shelf_01_eb_metal_shelf_01
v -0.479830 0.000000 0.014655
v -0.487534 0.000000 0.004050
v -0.500000 0.000000 0.000000
v -0.512466 0.000000 0.004050
v -0.520170 0.000000 0.014655
v -0.520170 0.000000 0.027762
v -0.512466 0.000000 0.038366
v -0.500000 0.000000 0.042417
v -0.487534 0.000000 0.038366
v -0.479830 0.000000 0.027762
v -0.479830 1.605282 0.014655
v -0.487534 1.605282 0.004050
v -0.500000 1.605282 0.000000
v -0.512466 1.605282 0.004050
v -0.520170 1.605282 0.014655
v -0.520170 1.605282 0.027762
v -0.512466 1.605282 0.038366
v -0.500000 1.605282 0.042417
v -0.487534 1.605282 0.038366
v -0.479830 1.605282 0.027762
v -0.500000 0.000000 0.021208
v -0.500000 1.605282 0.021208
v -0.479830 0.000000 0.362287
v -0.487534 0.000000 0.351682
v -0.500000 0.000000 0.347632
v -0.512466 0.000000 0.351682
v -0.520170 0.000000 0.362287
v -0.520170 0.000000 0.375394
v -0.512466 0.000000 0.385998
v -0.500000 0.000000 0.390049
v -0.487534 0.000000 0.385998
v -0.479830 0.000000 0.375394
v -0.479830 1.605282 0.362287
v -0.487534 1.605282 0.351682
v -0.500000 1.605282 0.347632
v -0.512466 1.605282 0.351682
v -0.520170 1.605282 0.362287
v -0.520170 1.605282 0.375394
v -0.512466 1.605282 0.385998
v -0.500000 1.605282 0.390049
v -0.487534 1.605282 0.385998
v -0.479830 1.605282 0.375394
v -0.500000 0.000000 0.368840
v -0.500000 1.605282 0.368840
v 0.479830 0.000000 0.375394
v 0.487534 0.000000 0.385998
v 0.500000 0.000000 0.390049
v 0.512466 0.000000 0.385998
v 0.520170 0.000000 0.375394
v 0.520170 0.000000 0.362287
v 0.512466 0.000000 0.351682
v 0.500000 0.000000 0.347632
v 0.487534 0.000000 0.351682
v 0.479830 0.000000 0.362287
v 0.479830 1.605282 0.375394
v 0.487534 1.605282 0.385998
v 0.500000 1.605282 0.390049
v 0.512466 1.605282 0.385998
v 0.520170 1.605282 0.375394
v 0.520170 1.605282 0.362287
v 0.512466 1.605282 0.351682
v 0.500000 1.605282 0.347632
v 0.487534 1.605282 0.351682
v 0.479830 1.605282 0.362287
v 0.500000 0.000000 0.368840
v 0.500000 1.605282 0.368840
v 0.479830 0.000000 0.027762
v 0.487534 0.000000 0.038366
v 0.500000 0.000000 0.042417
v 0.512466 0.000000 0.038366
v 0.520170 0.000000 0.027762
v 0.520170 0.000000 0.014655
v 0.512466 0.000000 0.004050
v 0.500000 0.000000 0.000000
v 0.487534 0.000000 0.004050
v 0.479830 0.000000 0.014655
v 0.479830 1.605282 0.027762
v 0.487534 1.605282 0.038366
v 0.500000 1.605282 0.042417
v 0.512466 1.605282 0.038366
v 0.520170 1.605282 0.027762
v 0.520170 1.605282 0.014655
v 0.512466 1.605282 0.004050
v 0.500000 1.605282 0.000000
v 0.487534 1.605282 0.004050
v 0.479830 1.605282 0.014655
v 0.500000 0.000000 0.021208
v 0.500000 1.605282 0.021208
v -0.472377 1.535771 0.348988
v 0.472846 1.535771 0.348988
v 0.472846 1.535771 0.041370
v -0.472377 1.535771 0.041370
v -0.472377 1.539771 0.348988
v 0.472846 1.539771 0.348988
v -0.472377 1.539771 0.041370
v 0.472846 1.539771 0.041370
v -0.497377 1.539771 0.373988
v 0.497846 1.539771 0.373988
v -0.497377 1.539771 0.016370
v 0.497846 1.539771 0.016370
v -0.472377 1.530153 0.348988
v 0.472846 1.530153 0.348988
v -0.497377 1.530153 0.373988
v 0.497846 1.530153 0.373988
v -0.472377 1.530153 0.041370
v 0.472846 1.530153 0.041370
v 0.497846 1.530153 0.016370
v -0.497377 1.530153 0.016370
v -0.472377 1.178736 0.348988
v 0.472846 1.178736 0.348988
v 0.472846 1.178736 0.041370
v -0.472377 1.178736 0.041370
v -0.472377 1.182737 0.348988
v 0.472846 1.182737 0.348988
v -0.472377 1.182737 0.041370
v 0.472846 1.182737 0.041370
v -0.497377 1.182737 0.373988
v 0.497846 1.182737 0.373988
v -0.497377 1.182737 0.016370
v 0.497846 1.182737 0.016370
v -0.472377 1.173119 0.348988
v 0.472846 1.173119 0.348988
v -0.497377 1.173119 0.373988
v 0.497846 1.173119 0.373988
v -0.472377 1.173119 0.041370
v 0.472846 1.173119 0.041370
v 0.497846 1.173119 0.016370
v -0.497377 1.173119 0.016370
v -0.472377 0.821702 0.041370
v 0.472846 0.821702 0.041370
v 0.472846 0.821702 0.348988
v -0.472377 0.821702 0.348988
v -0.472377 0.825703 0.041370
v 0.472846 0.825703 0.041370
v -0.472377 0.825703 0.348988
v 0.472846 0.825703 0.348988
v -0.497377 0.825703 0.016370
v 0.497846 0.825703 0.016370
v -0.497377 0.825703 0.373988
v 0.497846 0.825703 0.373988
v -0.472377 0.816084 0.041370
v 0.472846 0.816084 0.041370
v -0.497377 0.816084 0.016370
v 0.497846 0.816084 0.016370
v -0.472377 0.816084 0.348988
v 0.472846 0.816084 0.348988
v 0.497846 0.816084 0.373988
v -0.497377 0.816084 0.373988
v 0.472846 0.464668 0.041370
v -0.472377 0.464668 0.041370
v -0.472377 0.464668 0.348988
v 0.472846 0.464668 0.348988
v 0.472846 0.468668 0.041370
v -0.472377 0.468668 0.041370
v 0.472846 0.468668 0.348988
v -0.472377 0.468668 0.348988
v 0.497846 0.468668 0.016370
v -0.497377 0.468668 0.016370
v 0.497846 0.468668 0.373988
v -0.497377 0.468668 0.373988
v 0.472846 0.459050 0.041370
v -0.472377 0.459050 0.041370
v 0.497846 0.459050 0.016370
v -0.497377 0.459050 0.016370
v 0.472846 0.459050 0.348988
v -0.472377 0.459050 0.348988
v -0.497377 0.459050 0.373988
v 0.497846 0.459050 0.373988
v -0.472377 0.107633 0.348988
v 0.472846 0.107633 0.348988
v 0.472846 0.107633 0.041370
v -0.472377 0.107633 0.041370
v -0.472377 0.111634 0.348988
v 0.472846 0.111634 0.348988
v -0.472377 0.111634 0.041370
v 0.472846 0.111634 0.041370
v -0.497377 0.111634 0.373988
v 0.497846 0.111634 0.373988
v -0.497377 0.111634 0.016370
v 0.497846 0.111634 0.016370
v -0.472377 0.102016 0.348988
v 0.472846 0.102016 0.348988
v -0.497377 0.102016 0.373988
v 0.497846 0.102016 0.373988
v -0.472377 0.102016 0.041370
v 0.472846 0.102016 0.041370
v 0.497846 0.102016 0.016370
v -0.497377 0.102016 0.016370
vt 0.076221 0.993592
vt 0.076221 0.009309
vt 0.082480 0.009309
vt 0.082480 0.993592
vt 0.088739 0.009309
vt 0.088739 0.993592
vt 0.094998 0.009309
vt 0.094998 0.993592
vt 0.101257 0.009309
vt 0.101257 0.993592
vt 0.107516 0.009309
vt 0.107516 0.993592
vt 0.113775 0.009309
vt 0.113775 0.993592
vt 0.120034 0.009309
vt 0.120034 0.993592
vt 0.126293 0.009309
vt 0.126293 0.993592
vt 0.132552 0.009309
vt 0.132552 0.993592
vt 0.138811 0.009309
vt 0.138811 0.993592
vt 0.603601 0.957500
vt 0.606892 0.967628
vt 0.589873 0.966973
vt 0.594985 0.951240
vt 0.584335 0.951240
vt 0.575719 0.957500
vt 0.572429 0.967629
vt 0.575720 0.977757
vt 0.584336 0.984017
vt 0.594985 0.984016
vt 0.603601 0.977757
vt 0.652049 0.969225
vt 0.666075 0.979619
vt 0.657638 0.986119
vt 0.646993 0.986418
vt 0.638205 0.980403
vt 0.634630 0.970371
vt 0.637635 0.960154
vt 0.646071 0.953655
vt 0.656717 0.953355
vt 0.665505 0.959370
vt 0.669079 0.969402
vt 0.007720 0.993592
vt 0.007720 0.009309
vt 0.013979 0.009309
vt 0.013979 0.993592
vt 0.020237 0.009309
vt 0.020237 0.993592
vt 0.026496 0.009309
vt 0.026496 0.993592
vt 0.032755 0.009309
vt 0.032755 0.993592
vt 0.039014 0.009309
vt 0.039014 0.993592
vt 0.045273 0.009309
vt 0.045273 0.993592
vt 0.051532 0.009309
vt 0.051532 0.993592
vt 0.057791 0.009309
vt 0.057791 0.993592
vt 0.064050 0.009309
vt 0.064050 0.993592
vt 0.070309 0.009309
vt 0.070309 0.993592
vt 0.348233 0.961483
vt 0.351524 0.971611
vt 0.334505 0.970956
vt 0.339617 0.955223
vt 0.328967 0.955223
vt 0.320351 0.961483
vt 0.317061 0.971612
vt 0.320352 0.981740
vt 0.328968 0.988000
vt 0.339617 0.987999
vt 0.348233 0.981740
vt 0.394208 0.968632
vt 0.408234 0.979026
vt 0.399797 0.985526
vt 0.389152 0.985825
vt 0.380363 0.979810
vt 0.376789 0.969778
vt 0.379794 0.959561
vt 0.388230 0.953062
vt 0.398875 0.952762
vt 0.407664 0.958777
vt 0.411238 0.968809
vt 0.267699 0.305346
vt 0.280940 0.346094
vt 0.212472 0.343458
vt 0.233036 0.280163
vt 0.190191 0.280164
vt 0.155529 0.305348
vt 0.142290 0.346097
vt 0.155530 0.386845
vt 0.190193 0.412028
vt 0.233039 0.412027
vt 0.267701 0.386843
vt 0.214639 0.477456
vt 0.271066 0.519271
vt 0.237125 0.545420
vt 0.194297 0.546625
vt 0.158940 0.522426
vt 0.144559 0.482066
vt 0.156648 0.440961
vt 0.190588 0.414813
vt 0.233417 0.413608
vt 0.268774 0.437807
vt 0.283155 0.478167
vt 0.267699 0.032268
vt 0.280940 0.073016
vt 0.212472 0.070380
vt 0.233036 0.007084
vt 0.190191 0.007085
vt 0.155529 0.032270
vt 0.142290 0.073018
vt 0.155530 0.113766
vt 0.190193 0.138950
vt 0.233039 0.138949
vt 0.267701 0.113764
vt 0.214639 0.204378
vt 0.271066 0.246193
vt 0.237125 0.272341
vt 0.194297 0.273546
vt 0.158940 0.249347
vt 0.144559 0.208988
vt 0.156648 0.167883
vt 0.190588 0.141734
vt 0.233417 0.140529
vt 0.268774 0.164728
vt 0.283155 0.205088
vt 0.673234 0.985184
vt 0.673234 0.014816
vt 0.989035 0.014816
vt 0.989035 0.985184
vt 0.447308 0.027012
vt 0.472328 0.001992
vt 0.472328 0.998008
vt 0.447308 0.972988
vt 0.442130 0.972988
vt 0.417110 0.998008
vt 0.417110 0.001992
vt 0.442130 0.027012
vt 0.608497 0.366566
vt 0.633517 0.341546
vt 0.633517 0.699450
vt 0.608497 0.674430
vt 0.663623 0.674430
vt 0.638603 0.699450
vt 0.638603 0.341546
vt 0.663623 0.366566
vt 0.504639 0.027012
vt 0.504639 0.972988
vt 0.479619 0.998008
vt 0.479619 0.001992
vt 0.512906 0.972988
vt 0.512906 0.027012
vt 0.537926 0.001992
vt 0.537926 0.998008
vt 0.639145 0.337152
vt 0.639145 0.029289
vt 0.664165 0.004269
vt 0.664165 0.362172
vt 0.633546 0.029289
vt 0.633546 0.337152
vt 0.608526 0.362172
vt 0.608526 0.004269
vt 0.577886 0.001992
vt 0.587512 0.001992
vt 0.587512 0.947968
vt 0.577886 0.947968
vt 0.554661 0.998008
vt 0.545035 0.998008
vt 0.545035 0.001992
vt 0.554661 0.001992
vt 0.603938 0.947968
vt 0.594312 0.947968
vt 0.594312 0.001992
vt 0.603938 0.001992
vt 0.561461 0.001992
vt 0.571086 0.001992
vt 0.571086 0.998008
vt 0.561461 0.998008
vt 0.642222 0.949152
vt 0.634799 0.949152
vt 0.634799 0.711758
vt 0.642222 0.711758
vt 0.616890 0.987738
vt 0.609467 0.987738
vt 0.609467 0.711758
vt 0.616890 0.711758
vt 0.654887 0.949152
vt 0.647465 0.949152
vt 0.647465 0.711758
vt 0.654887 0.711758
vt 0.629556 0.987738
vt 0.622133 0.987738
vt 0.622133 0.711758
vt 0.629556 0.711758
vt 0.191433 0.027012
vt 0.216453 0.001992
vt 0.216453 0.998008
vt 0.191433 0.972988
vt 0.186255 0.972988
vt 0.161235 0.998008
vt 0.161235 0.001992
vt 0.186255 0.027012
vt 0.352623 0.366566
vt 0.377643 0.341546
vt 0.377642 0.699450
vt 0.352623 0.674430
vt 0.407748 0.674430
vt 0.382728 0.699450
vt 0.382728 0.341546
vt 0.407748 0.366566
vt 0.248765 0.027012
vt 0.248765 0.972988
vt 0.223745 0.998008
vt 0.223745 0.001992
vt 0.257031 0.972988
vt 0.257031 0.027012
vt 0.282051 0.001992
vt 0.282051 0.998008
vt 0.383271 0.337152
vt 0.383271 0.029289
vt 0.408291 0.004269
vt 0.408291 0.362172
vt 0.377671 0.029289
vt 0.377671 0.337152
vt 0.352651 0.362172
vt 0.352651 0.004269
vt 0.322011 0.001992
vt 0.331637 0.001992
vt 0.331637 0.947968
vt 0.322011 0.947968
vt 0.298786 0.998008
vt 0.289160 0.998008
vt 0.289160 0.001992
vt 0.298786 0.001992
vt 0.348063 0.947968
vt 0.338437 0.947968
vt 0.338437 0.001992
vt 0.348063 0.001992
vt 0.305586 0.001992
vt 0.315212 0.001992
vt 0.315212 0.998008
vt 0.305586 0.998008
vt 0.386347 0.941350
vt 0.378924 0.941350
vt 0.378924 0.703956
vt 0.386347 0.703956
vt 0.361015 0.979936
vt 0.353593 0.979936
vt 0.353593 0.703956
vt 0.361015 0.703956
vt 0.399013 0.941350
vt 0.391590 0.941350
vt 0.391590 0.703956
vt 0.399013 0.703956
vt 0.373681 0.979936
vt 0.366259 0.979936
vt 0.366259 0.703956
vt 0.373681 0.703956
vn 0.951100 0.000000 -0.309000
vn 0.587800 0.000000 -0.809000
vn -0.000000 0.000000 -1.000000
vn -0.587800 0.000000 -0.809000
vn -0.951100 0.000000 -0.309000
vn -0.951100 0.000000 0.309000
vn -0.587800 0.000000 0.809000
vn -0.000000 0.000000 1.000000
vn 0.587800 0.000000 0.809000
vn 0.951100 0.000000 0.309000
vn 0.000000 -1.000000 0.000000
vn 0.000000 1.000000 0.000000
vn 1.000000 0.000000 0.000000
vn -1.000000 0.000000 0.000000
usemtl eb_metal_shelf_01_eb_metal_shelf_01Mat
s 1
f 11/1/1 1/2/1 2/3/2 12/4/2
f 12/4/2 2/3/2 3/5/3 13/6/3
f 13/6/3 3/5/3 4/7/4 14/8/4
f 14/8/4 4/7/4 5/9/5 15/10/5
f 15/10/5 5/9/5 6/11/6 16/12/6
f 16/12/6 6/11/6 7/13/7 17/14/7
f 17/14/7 7/13/7 8/15/8 18/16/8
f 18/16/8 8/15/8 9/17/9 19/18/9
f 19/18/9 9/17/9 10/19/10 20/20/10
f 20/20/10 10/19/10 1/21/1 11/22/1
f 2/23/11 1/24/11 21/25/11
f 3/26/11 2/23/11 21/25/11
f 4/27/11 3/26/11 21/25/11
f 5/28/11 4/27/11 21/25/11
f 6/29/11 5/28/11 21/25/11
f 7/30/11 6/29/11 21/25/11
f 8/31/11 7/30/11 21/25/11
f 9/32/11 8/31/11 21/25/11
f 10/33/11 9/32/11 21/25/11
f 1/24/11 10/33/11 21/25/11
f 22/34/12 11/35/12 12/36/12
f 22/34/12 12/36/12 13/37/12
f 22/34/12 13/37/12 14/38/12
f 22/34/12 14/38/12 15/39/12
f 22/34/12 15/39/12 16/40/12
f 22/34/12 16/40/12 17/41/12
f 22/34/12 17/41/12 18/42/12
f 22/34/12 18/42/12 19/43/12
f 22/34/12 19/43/12 20/44/12
f 22/34/12 20/44/12 11/35/12
f 33/45/1 23/46/1 24/47/2 34/48/2
f 34/48/2 24/47/2 25/49/3 35/50/3
f 35/50/3 25/49/3 26/51/4 36/52/4
f 36/52/4 26/51/4 27/53/5 37/54/5
f 37/54/5 27/53/5 28/55/6 38/56/6
f 38/56/6 28/55/6 29/57/7 39/58/7
f 39/58/7 29/57/7 30/59/8 40/60/8
f 40/60/8 30/59/8 31/61/9 41/62/9
f 41/62/9 31/61/9 32/63/10 42/64/10
f 42/64/10 32/63/10 23/65/1 33/66/1
f 24/67/11 23/68/11 43/69/11
f 25/70/11 24/67/11 43/69/11
f 26/71/11 25/70/11 43/69/11
f 27/72/11 26/71/11 43/69/11
f 28/73/11 27/72/11 43/69/11
f 29/74/11 28/73/11 43/69/11
f 30/75/11 29/74/11 43/69/11
f 31/76/11 30/75/11 43/69/11
f 32/77/11 31/76/11 43/69/11
f 23/68/11 32/77/11 43/69/11
f 44/78/12 33/79/12 34/80/12
f 44/78/12 34/80/12 35/81/12
f 44/78/12 35/81/12 36/82/12
f 44/78/12 36/82/12 37/83/12
f 44/78/12 37/83/12 38/84/12
f 44/78/12 38/84/12 39/85/12
f 44/78/12 39/85/12 40/86/12
f 44/78/12 40/86/12 41/87/12
f 44/78/12 41/87/12 42/88/12
f 44/78/12 42/88/12 33/79/12
f 55/1/6 45/2/6 46/3/7 56/4/7
f 56/4/7 46/3/7 47/5/8 57/6/8
f 57/6/8 47/5/8 48/7/9 58/8/9
f 58/8/9 48/7/9 49/9/10 59/10/10
f 59/10/10 49/9/10 50/11/1 60/12/1
f 60/12/1 50/11/1 51/13/2 61/14/2
f 61/14/2 51/13/2 52/15/3 62/16/3
f 62/16/3 52/15/3 53/17/4 63/18/4
f 63/18/4 53/17/4 54/19/5 64/20/5
f 64/20/5 54/19/5 45/21/6 55/22/6
f 46/89/11 45/90/11 65/91/11
f 47/92/11 46/89/11 65/91/11
f 48/93/11 47/92/11 65/91/11
f 49/94/11 48/93/11 65/91/11
f 50/95/11 49/94/11 65/91/11
f 51/96/11 50/95/11 65/91/11
f 52/97/11 51/96/11 65/91/11
f 53/98/11 52/97/11 65/91/11
f 54/99/11 53/98/11 65/91/11
f 45/90/11 54/99/11 65/91/11
f 66/100/12 55/101/12 56/102/12
f 66/100/12 56/102/12 57/103/12
f 66/100/12 57/103/12 58/104/12
f 66/100/12 58/104/12 59/105/12
f 66/100/12 59/105/12 60/106/12
f 66/100/12 60/106/12 61/107/12
f 66/100/12 61/107/12 62/108/12
f 66/100/12 62/108/12 63/109/12
f 66/100/12 63/109/12 64/110/12
f 66/100/12 64/110/12 55/101/12
f 77/45/6 67/46/6 68/47/7 78/48/7
f 78/48/7 68/47/7 69/49/8 79/50/8
f 79/50/8 69/49/8 70/51/9 80/52/9
f 80/52/9 70/51/9 71/53/10 81/54/10
f 81/54/10 71/53/10 72/55/1 82/56/1
f 82/56/1 72/55/1 73/57/2 83/58/2
f 83/58/2 73/57/2 74/59/3 84/60/3
f 84/60/3 74/59/3 75/61/4 85/62/4
f 85/62/4 75/61/4 76/63/5 86/64/5
f 86/64/5 76/63/5 67/65/6 77/66/6
f 68/111/11 67/112/11 87/113/11
f 69/114/11 68/111/11 87/113/11
f 70/115/11 69/114/11 87/113/11
f 71/116/11 70/115/11 87/113/11
f 72/117/11 71/116/11 87/113/11
f 73/118/11 72/117/11 87/113/11
f 74/119/11 73/118/11 87/113/11
f 75/120/11 74/119/11 87/113/11
f 76/121/11 75/120/11 87/113/11
f 67/112/11 76/121/11 87/113/11
f 88/122/12 77/123/12 78/124/12
f 88/122/12 78/124/12 79/125/12
f 88/122/12 79/125/12 80/126/12
f 88/122/12 80/126/12 81/127/12
f 88/122/12 81/127/12 82/128/12
f 88/122/12 82/128/12 83/129/12
f 88/122/12 83/129/12 84/130/12
f 88/122/12 84/130/12 85/131/12
f 88/122/12 85/131/12 86/132/12
f 88/122/12 86/132/12 77/123/12
f 89/133/12 90/134/12 91/135/12 92/136/12
f 102/137/11 104/138/11 103/139/11 101/140/11
f 105/141/11 108/142/11 107/143/11 106/144/11
f 101/145/11 103/146/11 108/147/11 105/148/11
f 106/149/11 107/150/11 104/151/11 102/152/11
f 94/153/12 93/154/12 97/155/12 98/156/12
f 95/157/12 96/158/12 100/159/12 99/160/12
f 93/161/12 95/162/12 99/163/12 97/164/12
f 96/165/12 94/166/12 98/167/12 100/168/12
f 94/169/3 102/170/3 101/171/3 93/172/3
f 97/173/8 103/174/8 104/175/8 98/176/8
f 95/177/8 105/178/8 106/179/8 96/180/8
f 100/181/3 107/182/3 108/183/3 99/184/3
f 93/185/13 101/186/13 105/187/13 95/188/13
f 99/189/14 108/190/14 103/191/14 97/192/14
f 96/193/14 106/194/14 102/195/14 94/196/14
f 98/197/13 104/198/13 107/199/13 100/200/13
f 109/133/12 110/134/12 111/135/12 112/136/12
f 122/201/11 124/202/11 123/203/11 121/204/11
f 125/205/11 128/206/11 127/207/11 126/208/11
f 121/209/11 123/210/11 128/211/11 125/212/11
f 126/213/11 127/214/11 124/215/11 122/216/11
f 114/217/12 113/218/12 117/219/12 118/220/12
f 115/221/12 116/222/12 120/223/12 119/224/12
f 113/225/12 115/226/12 119/227/12 117/228/12
f 116/229/12 114/230/12 118/231/12 120/232/12
f 114/233/3 122/234/3 121/235/3 113/236/3
f 117/237/8 123/238/8 124/239/8 118/240/8
f 115/241/8 125/242/8 126/243/8 116/244/8
f 120/245/3 127/246/3 128/247/3 119/248/3
f 113/249/13 121/250/13 125/251/13 115/252/13
f 119/253/14 128/254/14 123/255/14 117/256/14
f 116/257/14 126/258/14 122/259/14 114/260/14
f 118/261/13 124/262/13 127/263/13 120/264/13
f 129/133/12 132/136/12 131/135/12 130/134/12
f 142/201/11 141/204/11 143/203/11 144/202/11
f 145/205/11 146/208/11 147/207/11 148/206/11
f 141/209/11 145/212/11 148/211/11 143/210/11
f 146/213/11 142/216/11 144/215/11 147/214/11
f 134/217/12 138/220/12 137/219/12 133/218/12
f 135/221/12 139/224/12 140/223/12 136/222/12
f 133/225/12 137/228/12 139/227/12 135/226/12
f 136/229/12 140/232/12 138/231/12 134/230/12
f 134/233/8 133/236/8 141/235/8 142/234/8
f 137/237/3 138/240/3 144/239/3 143/238/3
f 135/241/3 136/244/3 146/243/3 145/242/3
f 140/245/8 139/248/8 148/247/8 147/246/8
f 133/249/13 135/252/13 145/251/13 141/250/13
f 139/253/14 137/256/14 143/255/14 148/254/14
f 136/257/14 134/260/14 142/259/14 146/258/14
f 138/261/13 140/264/13 147/263/13 144/262/13
f 149/133/12 150/134/12 151/135/12 152/136/12
f 162/137/11 164/138/11 163/139/11 161/140/11
f 165/141/11 168/142/11 167/143/11 166/144/11
f 161/145/11 163/146/11 168/147/11 165/148/11
f 166/149/11 167/150/11 164/151/11 162/152/11
f 154/153/12 153/154/12 157/155/12 158/156/12
f 155/157/12 156/158/12 160/159/12 159/160/12
f 153/161/12 155/162/12 159/163/12 157/164/12
f 156/165/12 154/166/12 158/167/12 160/168/12
f 154/169/8 162/170/8 161/171/8 153/172/8
f 157/173/3 163/174/3 164/175/3 158/176/3
f 155/177/3 165/178/3 166/179/3 156/180/3
f 160/181/8 167/182/8 168/183/8 159/184/8
f 153/185/14 161/186/14 165/187/14 155/188/14
f 159/189/13 168/190/13 163/191/13 157/192/13
f 156/193/13 166/194/13 162/195/13 154/196/13
f 158/197/14 164/198/14 167/199/14 160/200/14
f 169/133/12 170/134/12 171/135/12 172/136/12
f 182/137/11 184/138/11 183/139/11 181/140/11
f 185/141/11 188/142/11 187/143/11 186/144/11
f 181/145/11 183/146/11 188/147/11 185/148/11
f 186/149/11 187/150/11 184/151/11 182/152/11
f 174/153/12 173/154/12 177/155/12 178/156/12
f 175/157/12 176/158/12 180/159/12 179/160/12
f 173/161/12 175/162/12 179/163/12 177/164/12
f 176/165/12 174/166/12 178/167/12 180/168/12
f 174/169/3 182/170/3 181/171/3 173/172/3
f 177/173/8 183/174/8 184/175/8 178/176/8
f 175/177/8 185/178/8 186/179/8 176/180/8
f 180/181/3 187/182/3 188/183/3 179/184/3
f 173/185/13 181/186/13 185/187/13 175/188/13
f 179/189/14 188/190/14 183/191/14 177/192/14
f 176/193/14 186/194/14 182/195/14 174/196/14
f 178/197/13 184/198/13 187/199/13 180/200/13
